<svg width="764" height="136" viewBox="0 0 764 136" fill="none" xmlns="http://www.w3.org/2000/svg">
<path fill-rule="evenodd" clip-rule="evenodd" d="M386.533 118.105C381.496 118.105 376.878 117.056 372.68 114.957C370.311 113.745 368.253 112.306 366.506 110.639C365.402 109.585 363.164 110.3 363.164 111.809V114.062C363.164 115.085 362.316 115.915 361.27 115.915H352.185C351.138 115.915 350.29 115.085 350.29 114.062V19.7476C350.29 18.7242 351.138 17.8945 352.185 17.8945H361.228C362.274 17.8945 363.122 18.7242 363.122 19.7476V52.9426C363.122 54.4515 365.364 55.1707 366.472 54.1203C368.233 52.4501 370.308 51.0085 372.68 49.7955C376.878 47.6964 381.496 46.6469 386.533 46.6469C395.582 46.6469 403.232 50.1149 409.482 57.0508C415.919 64.078 419.138 72.5197 419.138 82.376C419.138 92.3236 415.919 100.765 409.482 107.701C403.232 114.637 395.582 118.105 386.533 118.105ZM384.434 106.606C390.591 106.606 395.769 104.325 399.967 99.7614C404.165 95.2896 406.264 89.4944 406.264 82.376C406.264 75.3488 404.165 69.5537 399.967 64.9906C395.769 60.4275 390.591 58.1459 384.434 58.1459C378.184 58.1459 372.96 60.4275 368.762 64.9906C364.657 69.5537 362.605 75.3488 362.605 82.376C362.605 89.4944 364.657 95.3352 368.762 99.8983C372.96 104.37 378.184 106.606 384.434 106.606ZM306.053 118.105C295.978 118.105 287.675 114.728 281.145 107.975C274.614 101.222 271.349 92.6886 271.349 82.376C271.349 72.1546 274.521 63.6673 280.865 56.9139C287.208 50.0692 295.325 46.6469 305.213 46.6469C315.382 46.6469 323.451 49.8867 329.422 56.3663C335.856 63.1449 338.932 73.34 338.529 82.6129C338.477 83.8018 337.451 84.7031 336.235 84.7031H286.816C285.549 84.7031 284.522 85.7283 284.653 86.9609C285.243 92.4972 287.431 97.0378 291.22 100.583C295.511 104.598 300.642 106.606 306.613 106.606C314.23 106.606 320.321 103.149 324.886 96.235C325.496 95.3106 326.711 94.9352 327.722 95.4177L335.414 99.0884C336.498 99.6058 336.933 100.904 336.305 101.911C333.331 106.681 329.404 110.482 324.524 113.314C319.113 116.508 312.956 118.105 306.053 118.105ZM286.227 71.6558C285.772 72.9913 286.848 74.2993 288.287 74.2993H322.371C323.683 74.2993 324.731 73.2003 324.465 71.9438C323.701 68.3356 321.855 65.2878 318.927 62.8003C315.475 59.6974 310.811 58.1459 304.933 58.1459C300.082 58.1459 295.884 59.6061 292.339 62.5265C289.529 64.9042 287.492 67.9473 286.227 71.6558ZM267.402 51.4103C267.821 50.139 266.852 48.8372 265.487 48.8372H256.602C255.71 48.8372 254.924 49.4122 254.671 50.2497L241.567 93.7673C241.041 95.5126 238.527 95.549 237.949 93.8196L223.366 50.1941C223.095 49.3847 222.323 48.8372 221.453 48.8372H211.074C210.205 48.8372 209.434 49.3824 209.162 50.1895L194.447 93.8484C193.865 95.5742 191.356 95.5349 190.831 93.7918L177.719 50.2497C177.467 49.4122 176.681 48.8372 175.788 48.8372H166.623C165.258 48.8372 164.289 50.139 164.708 51.4103L185.52 114.55C185.788 115.363 186.562 115.915 187.435 115.915H197.517C198.391 115.915 199.165 115.363 199.433 114.549L214.12 69.9018C214.683 68.1901 217.157 68.1872 217.724 69.8976L232.536 114.554C232.805 115.365 233.578 115.915 234.45 115.915H244.675C245.549 115.915 246.323 115.363 246.591 114.55L267.402 51.4103ZM666.27 111.945C670.002 115.322 674.666 117.01 680.264 117.01C683.968 117.01 687.289 116.604 690.227 115.792C691.229 115.515 691.738 114.455 691.391 113.495L688.643 105.895C688.275 104.876 687.096 104.384 686.043 104.71C685.758 104.798 685.464 104.883 685.161 104.963C684.229 105.146 683.249 105.237 682.223 105.237C679.984 105.237 677.978 104.461 676.206 102.91C674.433 101.267 673.547 98.2099 673.547 93.7381V62.1893C673.547 61.1659 674.395 60.3362 675.441 60.3362H688.445C689.491 60.3362 690.339 59.5066 690.339 58.4832V50.6902C690.339 49.6668 689.491 48.8372 688.445 48.8372H675.441C674.395 48.8372 673.547 48.0076 673.547 46.9842V19.7476C673.547 18.7242 672.699 17.8945 671.653 17.8945H662.567C661.521 17.8945 660.673 18.7242 660.673 19.7476V46.9842C660.673 48.0076 659.825 48.8372 658.779 48.8372H650.533C649.487 48.8372 648.639 49.6668 648.639 50.6902V58.4832C648.639 59.5066 649.487 60.3362 650.533 60.3362H658.779C659.825 60.3362 660.673 61.1659 660.673 62.1893V97.8449C660.766 103.868 662.632 108.568 666.27 111.945ZM482.413 109.891C488.663 104.416 491.788 97.5711 491.788 89.3575C491.788 84.3381 490.342 79.8207 487.45 75.8051C486.119 73.8958 484.208 71.469 478.6 68.3934C477.415 67.7435 477.384 66.0124 478.505 65.2612C485.215 60.7626 488.57 53.9512 488.57 45.9625C488.57 38.3877 485.724 32.2275 480.034 27.4819C474.25 22.5538 467.113 20.0897 458.624 20.0897C451.814 20.0897 445.89 21.8693 440.852 25.4285C436.363 28.6 433.023 32.641 430.83 37.5516C430.376 38.5692 430.897 39.7315 431.943 40.1645L439.897 43.4603C441.024 43.9271 442.311 43.3661 442.816 42.2762C445.95 35.5162 451.219 32.1363 458.624 32.1363C463.661 32.1363 467.719 33.4139 470.798 35.9693C473.877 38.5246 475.416 41.8557 475.416 45.9625C475.416 50.4343 473.783 54.0848 470.518 56.9139C467.253 59.6518 463.055 61.0207 457.924 61.0207H452.778C451.602 61.0207 450.647 61.954 450.647 63.1053V70.7088C450.647 71.8601 451.602 72.7935 452.778 72.7935H458.904C464.314 72.7935 468.932 74.3906 472.757 77.5847C476.675 80.7789 478.634 84.7032 478.634 89.3575C478.634 94.0119 476.769 97.9818 473.037 101.267C469.212 104.461 464.688 106.058 459.463 106.058C454.706 106.058 450.601 104.69 447.149 101.952C444.29 99.5436 442.108 96.2758 440.601 92.1485C440.171 90.9702 438.832 90.3292 437.652 90.8104L429.868 93.9829C428.87 94.3897 428.335 95.4659 428.685 96.4666C430.861 102.687 434.637 107.801 440.013 111.808C445.796 116.006 452.28 118.105 459.463 118.105C468.606 118.105 476.255 115.367 482.413 109.891ZM514.632 95.3808C514.632 91.7304 516.358 88.6731 519.81 86.209C523.355 83.7449 527.739 82.5129 532.964 82.5129C539.666 82.5129 544.987 83.8635 548.928 86.5647C549.462 86.9305 549.763 87.5396 549.729 88.1762C549.472 93.0482 547.335 97.3206 543.319 100.993C539.121 104.918 534.316 106.88 528.906 106.88C525.081 106.88 521.722 105.785 518.83 103.594C516.032 101.404 514.632 98.6663 514.632 95.3808ZM553.814 54.176C548.31 49.1566 540.8 46.6469 531.284 46.6469C519.812 46.6469 510.971 50.5071 504.76 58.2275C504.091 59.0589 504.343 60.2603 505.258 60.8239L513.378 65.825C514.236 66.3536 515.361 66.1209 515.995 65.3464C520.071 60.3636 525.401 57.8721 531.984 57.8721C536.742 57.8721 540.893 59.4236 544.438 62.5265C548.006 65.5573 549.268 69.2 549.631 73.3143C549.755 74.7285 548.177 75.6431 546.838 75.0964C542.407 73.2873 537.083 72.3828 530.865 72.3828C521.909 72.3828 514.726 74.4362 509.315 78.543C503.997 82.6498 501.339 88.1711 501.339 95.107C501.339 101.678 503.857 107.154 508.895 111.534C514.026 115.915 520.37 118.105 527.926 118.105C536.789 118.105 543.879 114.272 549.196 106.606V114.062C549.196 115.085 550.044 115.915 551.09 115.915H560.176C561.222 115.915 562.07 115.085 562.07 114.062V74.5731C562.07 65.9032 559.318 59.1042 553.814 54.176ZM636.762 113.946C636.762 115.033 635.861 115.915 634.749 115.915H625.9C624.789 115.915 623.888 115.033 623.888 113.946V111.747C623.888 110.328 621.693 109.648 620.66 110.643C619.038 112.206 617.082 113.598 614.792 114.82C610.781 117.01 606.583 118.105 602.198 118.105C593.802 118.105 587.318 115.778 582.747 111.124C578.269 106.378 576.031 99.6701 576.031 91.0002V50.8061C576.031 49.7187 576.932 48.8372 578.043 48.8372H586.892C588.003 48.8372 588.904 49.7187 588.904 50.8061V90.1789C589.184 101.13 594.828 106.606 605.836 106.606C610.967 106.606 615.259 104.598 618.71 100.583C622.162 96.476 623.888 91.5935 623.888 85.9352V50.8061C623.888 49.7187 624.789 48.8372 625.9 48.8372H634.749C635.861 48.8372 636.762 49.7187 636.762 50.8061V113.946ZM703.269 19.7476C703.269 18.7242 704.117 17.8945 705.163 17.8945H714.248C715.295 17.8945 716.143 18.7242 716.143 19.7476V53.0053C716.143 54.4238 718.329 55.0984 719.356 54.0966C720.952 52.539 722.867 51.151 725.098 49.9324C729.203 47.7421 733.448 46.6469 737.832 46.6469C746.228 46.6469 752.665 49.0197 757.143 53.7654C761.714 58.4197 764 65.0818 764 73.7517V114.062C764 115.085 763.152 115.915 762.106 115.915H753.02C751.974 115.915 751.126 115.085 751.126 114.062V76.2158C751.126 64.1692 745.669 58.1459 734.754 58.1459C729.53 58.1459 725.098 60.2906 721.46 64.5799C717.915 68.7779 716.143 73.7061 716.143 79.3643V114.062C716.143 115.085 715.295 115.915 714.248 115.915H705.163C704.117 115.915 703.269 115.085 703.269 114.062V19.7476Z" fill="#0F1222"/>
<path d="M114.108 105.282C114.858 108.064 118.826 108.064 119.575 105.282L141.148 25.2025C142.141 21.5154 139.348 17.8945 135.51 17.8945H122.209C119.568 17.8945 117.255 19.6594 116.572 22.1974L104.407 67.3555C104.238 67.9819 104.238 68.6414 104.407 69.2678L114.108 105.282Z" fill="#0364FF"/>
<path d="M38.7172 67.2969C38.886 67.9233 38.886 68.5829 38.7172 69.2093L29.0155 105.223C28.2662 108.005 24.298 108.005 23.5486 105.223L1.99213 25.2025C0.998855 21.5154 3.79212 17.8945 7.62983 17.8945H20.9303C23.572 17.8945 25.8843 19.6594 26.568 22.1974L38.7172 67.2969Z" fill="#0364FF"/>
<path d="M56.902 122.884C56.2418 125.343 54.0086 127.052 51.4575 127.052H37.8465C34.1403 127.052 31.4427 123.545 32.4019 119.974L58.594 22.4532C59.3162 19.7643 61.7587 17.8945 64.549 17.8945H80.3797C83.17 17.8945 85.6125 19.7643 86.3347 22.4532L112.527 119.974C113.486 123.545 110.788 127.052 107.082 127.052H93.4712C90.92 127.052 88.6869 125.343 88.0266 122.884L75.1016 74.7608C74.3786 72.069 70.5501 72.069 69.8271 74.7608L56.902 122.884Z" fill="#0364FF"/>
<path d="M67.6842 112.737C66.7103 112.737 66.0014 111.863 66.2534 110.972L71.0336 94.0914C71.4259 92.7063 73.503 92.7062 73.8952 94.0914L78.6754 110.972C78.9275 111.863 78.2186 112.737 77.2447 112.737H67.6842Z" fill="#0364FF"/>
</svg>
